<svg width="17" height="19" viewBox="0 0 17 19" fill="none" xmlns="http://www.w3.org/2000/svg">
<path d="M13.5499 17.78C12.5699 18.73 11.4999 18.58 10.4699 18.13C9.37992 17.67 8.37992 17.65 7.22992 18.13C5.78992 18.75 5.02992 18.57 4.16992 17.78C-0.71008 12.75 0.00992012 5.09 5.54992 4.81C6.89992 4.88 7.83992 5.55 8.62992 5.61C9.80992 5.37 10.9399 4.68 12.1999 4.77C13.7099 4.89 14.8499 5.49 15.5999 6.57C12.4799 8.44 13.2199 12.55 16.0799 13.7C15.5099 15.2 14.7699 16.69 13.5399 17.79L13.5499 17.78ZM8.52992 4.75C8.37992 2.52 10.1899 0.68 12.2699 0.5C12.5599 3.08 9.92992 5 8.52992 4.75Z" fill="#FEFFFF"/>
</svg>
