<svg width="604" height="288" viewBox="0 0 604 288" fill="none" xmlns="http://www.w3.org/2000/svg">
<g clip-path="url(#clip0_4706_1381)">
<rect y="0.25" width="604" height="287" fill="#212121"/>
<path d="M301.703 1.04712C301.703 96.7138 301.703 136.575 301.703 144.547" stroke="white" stroke-width="1.59444" stroke-linecap="round"/>
<circle cx="302.922" cy="143.922" r="98.5646" stroke="url(#paint0_linear_4706_1381)" stroke-width="0.715779"/>
<circle cx="302.898" cy="143.351" r="142.744" stroke="url(#paint1_linear_4706_1381)" stroke-width="0.715779"/>
<path d="M302.101 1.04712C283.309 1.04712 264.701 4.74855 247.339 11.9401C229.977 19.1316 214.202 29.6724 200.913 42.9606C187.625 56.2488 177.084 72.0242 169.893 89.386C162.701 106.748 159 125.356 159 144.149L302.101 144.149V1.04712Z" fill="url(#paint2_linear_4706_1381)"/>
<path d="M385.412 144.547C329.607 144.547 306.354 144.547 301.704 144.547" stroke="white" stroke-width="1.59444" stroke-linecap="round"/>
<path d="M301.602 160.007C293.782 160.007 285.346 155.102 285.346 144.339C285.346 133.577 293.782 128.672 301.602 128.672C305.946 128.672 309.954 130.102 312.925 132.708C316.148 135.567 317.858 139.603 317.858 144.339C317.858 149.076 316.148 153.084 312.925 155.943C309.954 158.549 305.918 160.007 301.602 160.007Z" fill="url(#paint3_radial_4706_1381)"/>
<path d="M315.024 135.026C316.518 137.436 317.297 140.306 317.297 143.498C317.297 148.235 315.587 152.243 312.364 155.102C309.393 157.708 305.357 159.166 301.041 159.166C295.979 159.166 290.66 157.106 287.538 152.736C290.553 157.686 296.223 160.006 301.602 160.006C305.918 160.006 309.954 158.549 312.925 155.942C316.148 153.084 317.858 149.076 317.858 144.339C317.858 140.768 316.885 137.596 315.024 135.026Z" fill="#575859"/>
<path d="M301.602 160.007C293.782 160.007 285.346 155.102 285.346 144.339C285.346 133.577 293.782 128.672 301.602 128.672C305.946 128.672 309.954 130.102 312.925 132.708C316.148 135.567 317.858 139.603 317.858 144.339C317.858 149.076 316.148 153.084 312.925 155.943C309.954 158.549 305.918 160.007 301.602 160.007Z" fill="#707172"/>
<path d="M315.024 135.026C316.518 137.436 317.297 140.306 317.297 143.498C317.297 148.235 315.587 152.243 312.364 155.102C309.393 157.708 305.357 159.166 301.041 159.166C295.979 159.166 290.66 157.106 287.538 152.736C290.553 157.686 296.223 160.006 301.602 160.006C305.918 160.006 309.954 158.549 312.925 155.942C316.148 153.084 317.858 149.076 317.858 144.339C317.858 140.768 316.885 137.596 315.024 135.026Z" fill="#575859"/>
<path d="M306.676 136.43C304.307 137.077 303.015 139.09 303.419 141.663C303.665 143.249 305.255 146.324 309.47 145.393C311.984 144.838 313.256 143.008 313.209 140.612C313.206 140.463 313.111 140.376 313.083 140.371C313.083 140.371 313.024 140.427 312.929 140.783C312.446 142.574 311.188 144.247 308.937 144.496C306.121 144.81 304.686 142.854 304.467 141.452C304.178 139.589 305.126 137.957 306.959 137.456C308.043 137.159 309.097 137.467 309.851 138.302C310.204 138.695 310.585 139.42 310.456 140.138C310.101 142.097 308.282 142.069 307.657 141.604C307.18 141.245 307.012 140.499 308.007 140.256C308.368 140.169 308.68 140.085 308.778 139.605C308.842 139.3 308.59 138.989 308.318 138.851C307.718 138.546 306.959 138.829 306.507 139.221C306.023 139.642 305.821 140.3 305.95 141.026C306.051 141.593 306.51 142.332 307.303 142.728C308.282 143.215 310.86 143.156 311.465 140.628C311.743 139.465 311.236 138.263 310.692 137.643C309.159 135.909 307.062 136.323 306.676 136.43Z" fill="#FEFFFF"/>
<path d="M296.53 145.446C298.898 144.799 300.19 142.786 299.787 140.213C299.54 138.627 297.951 135.553 293.736 136.483C291.222 137.038 289.949 138.868 289.997 141.264C290 141.413 290.095 141.5 290.123 141.506C290.123 141.506 290.182 141.449 290.277 141.094C290.759 139.303 292.018 137.629 294.268 137.38C297.085 137.066 298.52 139.022 298.739 140.424C299.027 142.287 298.08 143.919 296.247 144.42C295.162 144.717 294.109 144.409 293.355 143.574C293.001 143.182 292.62 142.456 292.749 141.738C293.105 139.779 294.924 139.807 295.549 140.272C296.026 140.631 296.194 141.377 295.199 141.62C294.837 141.707 294.526 141.791 294.428 142.271C294.364 142.576 294.616 142.887 294.888 143.025C295.487 143.33 296.247 143.047 296.698 142.655C297.183 142.234 297.385 141.576 297.256 140.85C297.155 140.284 296.695 139.544 295.902 139.148C294.924 138.661 292.346 138.72 291.74 141.248C291.463 142.411 291.97 143.613 292.514 144.233C294.047 145.965 296.143 145.553 296.53 145.446Z" fill="#FEFFFF"/>
<path d="M311.551 151.167C311.133 150.685 309.855 149.819 307.534 150.954C307.019 151.206 306.747 151.492 305.813 151.425C305.2 151.383 304.74 151.086 304.213 150.746C303.543 150.315 302.784 149.833 301.607 149.785C300.429 149.833 299.67 150.315 299 150.746C298.47 151.088 298.013 151.383 297.4 151.425C296.466 151.492 296.169 151.251 295.654 150.999C293.333 149.864 292.08 150.685 291.662 151.167C291.29 151.599 291.542 152.058 292.229 151.568C292.652 151.265 293.411 150.881 295.129 151.851C295.682 152.162 296.203 152.633 297.478 152.543C298.381 152.479 299.006 152.078 299.608 151.688C300.197 151.307 300.76 150.951 301.607 150.906C302.456 150.951 303.016 151.307 303.605 151.688C304.207 152.078 304.832 152.481 305.735 152.543C307.01 152.633 307.506 152.117 308.058 151.806C309.776 150.836 310.561 151.265 310.984 151.568C311.668 152.058 311.923 151.599 311.551 151.167Z" fill="#FEFFFF"/>
<rect x="109.708" y="113.208" width="99.5837" height="37.5837" rx="18.7919" fill="#2F2F2F"/>
<rect x="109.708" y="113.208" width="99.5837" height="37.5837" rx="18.7919" stroke="url(#paint4_linear_4706_1381)" stroke-width="0.416295"/>
<path d="M126.62 138V126.48H131.068C131.18 126.48 131.305 126.485 131.444 126.496C131.588 126.501 131.732 126.517 131.876 126.544C132.479 126.635 132.988 126.845 133.404 127.176C133.825 127.501 134.143 127.912 134.356 128.408C134.575 128.904 134.684 129.453 134.684 130.056C134.684 130.925 134.455 131.68 133.996 132.32C133.537 132.96 132.881 133.363 132.028 133.528L131.62 133.624H127.796V138H126.62ZM133.596 138L131.324 133.312L132.452 132.88L134.948 138H133.596ZM127.796 132.504H131.036C131.132 132.504 131.244 132.499 131.372 132.488C131.5 132.477 131.625 132.459 131.748 132.432C132.143 132.347 132.465 132.184 132.716 131.944C132.972 131.704 133.161 131.419 133.284 131.088C133.412 130.757 133.476 130.413 133.476 130.056C133.476 129.699 133.412 129.355 133.284 129.024C133.161 128.688 132.972 128.4 132.716 128.16C132.465 127.92 132.143 127.757 131.748 127.672C131.625 127.645 131.5 127.629 131.372 127.624C131.244 127.613 131.132 127.608 131.036 127.608H127.796V132.504ZM140.05 138.24C139.207 138.24 138.476 138.053 137.858 137.68C137.244 137.307 136.767 136.781 136.426 136.104C136.084 135.427 135.914 134.632 135.914 133.72C135.914 132.776 136.082 131.96 136.418 131.272C136.754 130.584 137.226 130.053 137.834 129.68C138.447 129.307 139.17 129.12 140.002 129.12C140.855 129.12 141.583 129.317 142.186 129.712C142.788 130.101 143.244 130.661 143.554 131.392C143.863 132.123 144.004 132.995 143.978 134.008H142.778V133.592C142.756 132.472 142.514 131.627 142.05 131.056C141.591 130.485 140.919 130.2 140.034 130.2C139.106 130.2 138.394 130.501 137.898 131.104C137.407 131.707 137.162 132.565 137.162 133.68C137.162 134.768 137.407 135.613 137.898 136.216C138.394 136.813 139.095 137.112 140.002 137.112C140.62 137.112 141.159 136.971 141.618 136.688C142.082 136.4 142.447 135.987 142.714 135.448L143.81 135.872C143.468 136.624 142.964 137.208 142.298 137.624C141.636 138.035 140.887 138.24 140.05 138.24ZM136.746 134.008V133.024H143.346V134.008H136.746ZM148.657 138.232C147.644 138.232 146.809 138.013 146.153 137.576C145.502 137.139 145.102 136.531 144.953 135.752L146.153 135.552C146.281 136.043 146.572 136.435 147.025 136.728C147.484 137.016 148.049 137.16 148.721 137.16C149.377 137.16 149.894 137.024 150.273 136.752C150.652 136.475 150.841 136.099 150.841 135.624C150.841 135.357 150.78 135.141 150.657 134.976C150.54 134.805 150.297 134.648 149.929 134.504C149.561 134.36 149.012 134.189 148.281 133.992C147.497 133.779 146.884 133.565 146.441 133.352C145.998 133.139 145.684 132.893 145.497 132.616C145.31 132.333 145.217 131.989 145.217 131.584C145.217 131.093 145.356 130.664 145.633 130.296C145.91 129.923 146.294 129.635 146.785 129.432C147.276 129.224 147.846 129.12 148.497 129.12C149.148 129.12 149.729 129.227 150.241 129.44C150.758 129.648 151.174 129.941 151.489 130.32C151.804 130.699 151.99 131.139 152.049 131.64L150.849 131.856C150.769 131.349 150.516 130.949 150.089 130.656C149.668 130.357 149.132 130.203 148.481 130.192C147.868 130.176 147.369 130.293 146.985 130.544C146.601 130.789 146.409 131.117 146.409 131.528C146.409 131.757 146.478 131.955 146.617 132.12C146.756 132.28 147.006 132.432 147.369 132.576C147.737 132.72 148.26 132.877 148.937 133.048C149.732 133.251 150.356 133.464 150.809 133.688C151.262 133.912 151.585 134.176 151.777 134.48C151.969 134.784 152.065 135.16 152.065 135.608C152.065 136.424 151.761 137.067 151.153 137.536C150.55 138 149.718 138.232 148.657 138.232ZM157.175 138.24C156.333 138.24 155.602 138.053 154.983 137.68C154.37 137.307 153.893 136.781 153.551 136.104C153.21 135.427 153.039 134.632 153.039 133.72C153.039 132.776 153.207 131.96 153.543 131.272C153.879 130.584 154.351 130.053 154.959 129.68C155.573 129.307 156.295 129.12 157.127 129.12C157.981 129.12 158.709 129.317 159.311 129.712C159.914 130.101 160.37 130.661 160.679 131.392C160.989 132.123 161.13 132.995 161.103 134.008H159.903V133.592C159.882 132.472 159.639 131.627 159.175 131.056C158.717 130.485 158.045 130.2 157.159 130.2C156.231 130.2 155.519 130.501 155.023 131.104C154.533 131.707 154.287 132.565 154.287 133.68C154.287 134.768 154.533 135.613 155.023 136.216C155.519 136.813 156.221 137.112 157.127 137.112C157.746 137.112 158.285 136.971 158.743 136.688C159.207 136.4 159.573 135.987 159.839 135.448L160.935 135.872C160.594 136.624 160.09 137.208 159.423 137.624C158.762 138.035 158.013 138.24 157.175 138.24ZM153.871 134.008V133.024H160.471V134.008H153.871ZM164.875 138.24C164.224 138.24 163.677 138.123 163.235 137.888C162.797 137.653 162.469 137.341 162.251 136.952C162.032 136.563 161.923 136.139 161.923 135.68C161.923 135.211 162.016 134.811 162.203 134.48C162.395 134.144 162.653 133.869 162.979 133.656C163.309 133.443 163.691 133.28 164.123 133.168C164.56 133.061 165.043 132.968 165.571 132.888C166.104 132.803 166.624 132.731 167.131 132.672C167.643 132.608 168.091 132.547 168.475 132.488L168.059 132.744C168.075 131.891 167.909 131.259 167.563 130.848C167.216 130.437 166.613 130.232 165.755 130.232C165.163 130.232 164.661 130.365 164.251 130.632C163.845 130.899 163.56 131.32 163.395 131.896L162.251 131.56C162.448 130.787 162.845 130.187 163.443 129.76C164.04 129.333 164.816 129.12 165.771 129.12C166.56 129.12 167.229 129.269 167.779 129.568C168.333 129.861 168.725 130.288 168.955 130.848C169.061 131.099 169.131 131.379 169.163 131.688C169.195 131.997 169.211 132.312 169.211 132.632V138H168.163V135.832L168.467 135.96C168.173 136.701 167.717 137.267 167.099 137.656C166.48 138.045 165.739 138.24 164.875 138.24ZM165.011 137.224C165.56 137.224 166.04 137.125 166.451 136.928C166.861 136.731 167.192 136.461 167.443 136.12C167.693 135.773 167.856 135.384 167.931 134.952C167.995 134.675 168.029 134.371 168.035 134.04C168.04 133.704 168.043 133.453 168.043 133.288L168.491 133.52C168.091 133.573 167.656 133.627 167.187 133.68C166.723 133.733 166.264 133.795 165.811 133.864C165.363 133.933 164.957 134.016 164.595 134.112C164.349 134.181 164.112 134.28 163.883 134.408C163.653 134.531 163.464 134.696 163.315 134.904C163.171 135.112 163.099 135.371 163.099 135.68C163.099 135.931 163.16 136.173 163.283 136.408C163.411 136.643 163.613 136.837 163.891 136.992C164.173 137.147 164.547 137.224 165.011 137.224ZM170.973 138V129.36H172.029V131.44L171.821 131.168C171.917 130.912 172.042 130.677 172.197 130.464C172.352 130.245 172.52 130.067 172.701 129.928C172.925 129.731 173.186 129.581 173.485 129.48C173.784 129.373 174.085 129.312 174.389 129.296C174.693 129.275 174.97 129.296 175.221 129.36V130.464C174.906 130.384 174.562 130.365 174.189 130.408C173.816 130.451 173.472 130.6 173.157 130.856C172.869 131.08 172.653 131.349 172.509 131.664C172.365 131.973 172.269 132.304 172.221 132.656C172.173 133.003 172.149 133.347 172.149 133.688V138H170.973ZM179.847 138.24C178.977 138.24 178.241 138.045 177.639 137.656C177.036 137.267 176.577 136.731 176.263 136.048C175.953 135.36 175.793 134.571 175.783 133.68C175.793 132.773 175.959 131.979 176.279 131.296C176.599 130.608 177.06 130.075 177.663 129.696C178.265 129.312 178.996 129.12 179.855 129.12C180.729 129.12 181.489 129.333 182.135 129.76C182.785 130.187 183.231 130.771 183.471 131.512L182.319 131.88C182.116 131.363 181.793 130.963 181.351 130.68C180.913 130.392 180.412 130.248 179.847 130.248C179.212 130.248 178.687 130.395 178.271 130.688C177.855 130.976 177.545 131.379 177.343 131.896C177.14 132.413 177.036 133.008 177.031 133.68C177.041 134.715 177.281 135.547 177.751 136.176C178.22 136.8 178.919 137.112 179.847 137.112C180.433 137.112 180.932 136.979 181.343 136.712C181.759 136.44 182.073 136.045 182.287 135.528L183.471 135.88C183.151 136.648 182.681 137.235 182.063 137.64C181.444 138.04 180.705 138.24 179.847 138.24ZM191.042 138V133.592C191.042 133.112 190.997 132.672 190.906 132.272C190.815 131.867 190.669 131.515 190.466 131.216C190.269 130.912 190.01 130.677 189.69 130.512C189.375 130.347 188.991 130.264 188.538 130.264C188.122 130.264 187.754 130.336 187.434 130.48C187.119 130.624 186.853 130.832 186.634 131.104C186.421 131.371 186.258 131.696 186.146 132.08C186.034 132.464 185.978 132.901 185.978 133.392L185.146 133.208C185.146 132.323 185.301 131.579 185.61 130.976C185.919 130.373 186.346 129.917 186.89 129.608C187.434 129.299 188.058 129.144 188.762 129.144C189.279 129.144 189.73 129.224 190.114 129.384C190.503 129.544 190.831 129.76 191.098 130.032C191.37 130.304 191.589 130.616 191.754 130.968C191.919 131.315 192.039 131.685 192.114 132.08C192.189 132.469 192.226 132.859 192.226 133.248V138H191.042ZM184.794 138V126.48H185.858V132.984H185.978V138H184.794Z" fill="#808080"/>
<rect x="190.208" y="7.20815" width="66.5837" height="37.5837" rx="18.7919" fill="#2F2F2F"/>
<rect x="190.208" y="7.20815" width="66.5837" height="37.5837" rx="18.7919" stroke="url(#paint5_linear_4706_1381)" stroke-width="0.416295"/>
<path d="M211.784 32.24C210.637 32.24 209.669 31.9867 208.88 31.48C208.091 30.968 207.493 30.2613 207.088 29.36C206.683 28.4587 206.48 27.4187 206.48 26.24C206.48 25.0613 206.683 24.0213 207.088 23.12C207.493 22.2187 208.091 21.5147 208.88 21.008C209.669 20.496 210.637 20.24 211.784 20.24C213.123 20.24 214.216 20.584 215.064 21.272C215.912 21.9547 216.493 22.872 216.808 24.024L215.608 24.336C215.363 23.424 214.923 22.7013 214.288 22.168C213.653 21.6347 212.819 21.368 211.784 21.368C210.883 21.368 210.133 21.5733 209.536 21.984C208.939 22.3947 208.488 22.968 208.184 23.704C207.885 24.4347 207.731 25.28 207.72 26.24C207.715 27.2 207.861 28.0453 208.16 28.776C208.464 29.5067 208.917 30.08 209.52 30.496C210.128 30.9067 210.883 31.112 211.784 31.112C212.819 31.112 213.653 30.8453 214.288 30.312C214.923 29.7733 215.363 29.0507 215.608 28.144L216.808 28.456C216.493 29.608 215.912 30.528 215.064 31.216C214.216 31.8987 213.123 32.24 211.784 32.24ZM221.861 32.24C221.002 32.24 220.269 32.0453 219.661 31.656C219.053 31.2667 218.586 30.728 218.261 30.04C217.936 29.352 217.773 28.5627 217.773 27.672C217.773 26.7653 217.938 25.9707 218.269 25.288C218.6 24.6053 219.069 24.0747 219.677 23.696C220.29 23.312 221.018 23.12 221.861 23.12C222.725 23.12 223.461 23.3147 224.069 23.704C224.682 24.088 225.149 24.624 225.469 25.312C225.794 25.9947 225.957 26.7813 225.957 27.672C225.957 28.5787 225.794 29.376 225.469 30.064C225.144 30.7467 224.674 31.28 224.061 31.664C223.448 32.048 222.714 32.24 221.861 32.24ZM221.861 31.112C222.821 31.112 223.536 30.7947 224.005 30.16C224.474 29.52 224.709 28.6907 224.709 27.672C224.709 26.6267 224.472 25.7947 223.997 25.176C223.528 24.5573 222.816 24.248 221.861 24.248C221.216 24.248 220.682 24.3947 220.261 24.688C219.845 24.976 219.533 25.3787 219.325 25.896C219.122 26.408 219.021 27 219.021 27.672C219.021 28.712 219.261 29.5467 219.741 30.176C220.221 30.8 220.928 31.112 221.861 31.112ZM230.548 32.232C229.534 32.232 228.7 32.0133 228.044 31.576C227.393 31.1387 226.993 30.5307 226.844 29.752L228.044 29.552C228.172 30.0427 228.462 30.4347 228.916 30.728C229.374 31.016 229.94 31.16 230.612 31.16C231.268 31.16 231.785 31.024 232.164 30.752C232.542 30.4747 232.732 30.0987 232.732 29.624C232.732 29.3573 232.67 29.1413 232.548 28.976C232.43 28.8053 232.188 28.648 231.82 28.504C231.452 28.36 230.902 28.1893 230.172 27.992C229.388 27.7787 228.774 27.5653 228.332 27.352C227.889 27.1387 227.574 26.8933 227.388 26.616C227.201 26.3333 227.108 25.9893 227.108 25.584C227.108 25.0933 227.246 24.664 227.524 24.296C227.801 23.9227 228.185 23.6347 228.676 23.432C229.166 23.224 229.737 23.12 230.388 23.12C231.038 23.12 231.62 23.2267 232.132 23.44C232.649 23.648 233.065 23.9413 233.38 24.32C233.694 24.6987 233.881 25.1387 233.94 25.64L232.74 25.856C232.66 25.3493 232.406 24.9493 231.98 24.656C231.558 24.3573 231.022 24.2027 230.372 24.192C229.758 24.176 229.26 24.2933 228.876 24.544C228.492 24.7893 228.3 25.1173 228.3 25.528C228.3 25.7573 228.369 25.9547 228.508 26.12C228.646 26.28 228.897 26.432 229.26 26.576C229.628 26.72 230.15 26.8773 230.828 27.048C231.622 27.2507 232.246 27.464 232.7 27.688C233.153 27.912 233.476 28.176 233.668 28.48C233.86 28.784 233.956 29.16 233.956 29.608C233.956 30.424 233.652 31.0667 233.044 31.536C232.441 32 231.609 32.232 230.548 32.232ZM240.114 32C239.629 32.1013 239.149 32.1413 238.674 32.12C238.205 32.0987 237.783 31.9973 237.41 31.816C237.042 31.6347 236.762 31.352 236.57 30.968C236.415 30.648 236.33 30.3253 236.314 30C236.303 29.6693 236.298 29.2933 236.298 28.872V20.96H237.466V28.824C237.466 29.1867 237.469 29.4907 237.474 29.736C237.485 29.976 237.541 30.1893 237.642 30.376C237.834 30.7333 238.138 30.9467 238.554 31.016C238.975 31.0853 239.495 31.0693 240.114 30.968V32ZM234.45 24.368V23.36H240.114V24.368H234.45Z" fill="#808080"/>
<rect x="344.208" y="13.2081" width="67.5837" height="37.5837" rx="18.7919" fill="#2F2F2F"/>
<rect x="344.208" y="13.2081" width="67.5837" height="37.5837" rx="18.7919" stroke="url(#paint6_linear_4706_1381)" stroke-width="0.416295"/>
<path d="M364.184 38V27.608H360.16V26.48H369.384V27.608H365.36V38H364.184ZM370.507 27.72V26.4H371.683V27.72H370.507ZM370.507 38V29.36H371.683V38H370.507ZM384.065 38L384.073 32.328C384.073 31.6613 383.887 31.1387 383.513 30.76C383.145 30.376 382.676 30.184 382.105 30.184C381.78 30.184 381.463 30.2587 381.153 30.408C380.844 30.5573 380.588 30.7973 380.385 31.128C380.188 31.4587 380.089 31.8907 380.089 32.424L379.393 32.224C379.377 31.6053 379.497 31.064 379.753 30.6C380.015 30.136 380.372 29.776 380.825 29.52C381.284 29.2587 381.801 29.128 382.377 29.128C383.247 29.128 383.943 29.3973 384.465 29.936C384.988 30.4693 385.249 31.192 385.249 32.104L385.241 38H384.065ZM373.753 38V29.36H374.809V31.488H374.937V38H373.753ZM378.921 38L378.929 32.408C378.929 31.72 378.745 31.1787 378.377 30.784C378.015 30.384 377.535 30.184 376.937 30.184C376.34 30.184 375.857 30.3893 375.489 30.8C375.121 31.2053 374.937 31.7467 374.937 32.424L374.233 32.04C374.233 31.4853 374.364 30.9893 374.625 30.552C374.887 30.1093 375.244 29.7627 375.697 29.512C376.151 29.256 376.665 29.128 377.241 29.128C377.791 29.128 378.279 29.2453 378.705 29.48C379.137 29.7147 379.476 30.056 379.721 30.504C379.967 30.952 380.089 31.496 380.089 32.136L380.081 38H378.921ZM390.613 38.24C389.77 38.24 389.04 38.0533 388.421 37.68C387.808 37.3067 387.33 36.7813 386.989 36.104C386.648 35.4267 386.477 34.632 386.477 33.72C386.477 32.776 386.645 31.96 386.981 31.272C387.317 30.584 387.789 30.0533 388.397 29.68C389.01 29.3067 389.733 29.12 390.565 29.12C391.418 29.12 392.146 29.3173 392.749 29.712C393.352 30.1013 393.808 30.6613 394.117 31.392C394.426 32.1227 394.568 32.9947 394.541 34.008H393.341V33.592C393.32 32.472 393.077 31.6267 392.613 31.056C392.154 30.4853 391.482 30.2 390.597 30.2C389.669 30.2 388.957 30.5013 388.461 31.104C387.97 31.7067 387.725 32.5653 387.725 33.68C387.725 34.768 387.97 35.6133 388.461 36.216C388.957 36.8133 389.658 37.112 390.565 37.112C391.184 37.112 391.722 36.9707 392.181 36.688C392.645 36.4 393.01 35.9867 393.277 35.448L394.373 35.872C394.032 36.624 393.528 37.208 392.861 37.624C392.2 38.0347 391.45 38.24 390.613 38.24ZM387.309 34.008V33.024H393.909V34.008H387.309Z" fill="#808080"/>
<rect x="223.708" y="205.208" width="149.584" height="37.5837" rx="18.7919" fill="#2F2F2F"/>
<rect x="223.708" y="205.208" width="149.584" height="37.5837" rx="18.7919" stroke="url(#paint7_linear_4706_1381)" stroke-width="0.416295"/>
<path d="M240.62 230V218.48H247.82V219.608H241.796V223.592H246.86V224.72H241.796V228.872H247.82V230H240.62ZM248.465 230L251.841 225.632L248.537 221.36H249.945L252.529 224.728L255.089 221.36H256.497L253.193 225.632L256.577 230H255.161L252.529 226.536L249.881 230H248.465ZM261.423 230.24C260.628 230.24 259.956 230.04 259.407 229.64C258.857 229.235 258.441 228.688 258.159 228C257.876 227.307 257.735 226.531 257.735 225.672C257.735 224.797 257.876 224.019 258.159 223.336C258.447 222.648 258.868 222.107 259.423 221.712C259.977 221.317 260.66 221.12 261.471 221.12C262.26 221.12 262.937 221.32 263.503 221.72C264.068 222.12 264.5 222.664 264.799 223.352C265.103 224.04 265.255 224.813 265.255 225.672C265.255 226.536 265.103 227.312 264.799 228C264.495 228.688 264.057 229.235 263.487 229.64C262.916 230.04 262.228 230.24 261.423 230.24ZM257.535 233.84V221.36H258.591V227.864H258.719V233.84H257.535ZM261.303 229.144C261.905 229.144 262.407 228.992 262.807 228.688C263.207 228.384 263.505 227.971 263.703 227.448C263.905 226.92 264.007 226.328 264.007 225.672C264.007 225.021 263.908 224.435 263.711 223.912C263.513 223.389 263.212 222.976 262.807 222.672C262.407 222.368 261.897 222.216 261.279 222.216C260.676 222.216 260.175 222.363 259.775 222.656C259.38 222.949 259.084 223.357 258.887 223.88C258.689 224.397 258.591 224.995 258.591 225.672C258.591 226.339 258.689 226.936 258.887 227.464C259.084 227.987 259.383 228.397 259.783 228.696C260.183 228.995 260.689 229.144 261.303 229.144ZM270.347 230.24C269.505 230.24 268.774 230.053 268.155 229.68C267.542 229.307 267.065 228.781 266.723 228.104C266.382 227.427 266.211 226.632 266.211 225.72C266.211 224.776 266.379 223.96 266.715 223.272C267.051 222.584 267.523 222.053 268.131 221.68C268.745 221.307 269.467 221.12 270.299 221.12C271.153 221.12 271.881 221.317 272.483 221.712C273.086 222.101 273.542 222.661 273.851 223.392C274.161 224.123 274.302 224.995 274.275 226.008H273.075V225.592C273.054 224.472 272.811 223.627 272.347 223.056C271.889 222.485 271.217 222.2 270.331 222.2C269.403 222.2 268.691 222.501 268.195 223.104C267.705 223.707 267.459 224.565 267.459 225.68C267.459 226.768 267.705 227.613 268.195 228.216C268.691 228.813 269.393 229.112 270.299 229.112C270.918 229.112 271.457 228.971 271.915 228.688C272.379 228.4 272.745 227.987 273.011 227.448L274.107 227.872C273.766 228.624 273.262 229.208 272.595 229.624C271.934 230.035 271.185 230.24 270.347 230.24ZM267.043 226.008V225.024H273.643V226.008H267.043ZM275.731 230V221.36H276.787V223.44L276.579 223.168C276.675 222.912 276.8 222.677 276.955 222.464C277.109 222.245 277.277 222.067 277.459 221.928C277.683 221.731 277.944 221.581 278.243 221.48C278.541 221.373 278.843 221.312 279.147 221.296C279.451 221.275 279.728 221.296 279.979 221.36V222.464C279.664 222.384 279.32 222.365 278.947 222.408C278.573 222.451 278.229 222.6 277.915 222.856C277.627 223.08 277.411 223.349 277.267 223.664C277.123 223.973 277.027 224.304 276.979 224.656C276.931 225.003 276.907 225.347 276.907 225.688V230H275.731ZM281.336 219.72V218.4H282.512V219.72H281.336ZM281.336 230V221.36H282.512V230H281.336ZM294.895 230L294.903 224.328C294.903 223.661 294.716 223.139 294.343 222.76C293.975 222.376 293.505 222.184 292.935 222.184C292.609 222.184 292.292 222.259 291.983 222.408C291.673 222.557 291.417 222.797 291.215 223.128C291.017 223.459 290.919 223.891 290.919 224.424L290.223 224.224C290.207 223.605 290.327 223.064 290.583 222.6C290.844 222.136 291.201 221.776 291.655 221.52C292.113 221.259 292.631 221.128 293.207 221.128C294.076 221.128 294.772 221.397 295.295 221.936C295.817 222.469 296.079 223.192 296.079 224.104L296.071 230H294.895ZM284.583 230V221.36H285.639V223.488H285.767V230H284.583ZM289.751 230L289.759 224.408C289.759 223.72 289.575 223.179 289.207 222.784C288.844 222.384 288.364 222.184 287.767 222.184C287.169 222.184 286.687 222.389 286.319 222.8C285.951 223.205 285.767 223.747 285.767 224.424L285.063 224.04C285.063 223.485 285.193 222.989 285.455 222.552C285.716 222.109 286.073 221.763 286.527 221.512C286.98 221.256 287.495 221.128 288.071 221.128C288.62 221.128 289.108 221.245 289.535 221.48C289.967 221.715 290.305 222.056 290.551 222.504C290.796 222.952 290.919 223.496 290.919 224.136L290.911 230H289.751ZM301.442 230.24C300.6 230.24 299.869 230.053 299.25 229.68C298.637 229.307 298.16 228.781 297.818 228.104C297.477 227.427 297.306 226.632 297.306 225.72C297.306 224.776 297.474 223.96 297.81 223.272C298.146 222.584 298.618 222.053 299.226 221.68C299.84 221.307 300.562 221.12 301.394 221.12C302.248 221.12 302.976 221.317 303.578 221.712C304.181 222.101 304.637 222.661 304.946 223.392C305.256 224.123 305.397 224.995 305.37 226.008H304.17V225.592C304.149 224.472 303.906 223.627 303.442 223.056C302.984 222.485 302.312 222.2 301.426 222.2C300.498 222.2 299.786 222.501 299.29 223.104C298.8 223.707 298.554 224.565 298.554 225.68C298.554 226.768 298.8 227.613 299.29 228.216C299.786 228.813 300.488 229.112 301.394 229.112C302.013 229.112 302.552 228.971 303.01 228.688C303.474 228.4 303.84 227.987 304.106 227.448L305.202 227.872C304.861 228.624 304.357 229.208 303.69 229.624C303.029 230.035 302.28 230.24 301.442 230.24ZM298.138 226.008V225.024H304.738V226.008H298.138ZM312.831 230V225.592C312.831 225.112 312.786 224.672 312.695 224.272C312.605 223.867 312.458 223.515 312.255 223.216C312.058 222.912 311.799 222.677 311.479 222.512C311.165 222.347 310.781 222.264 310.327 222.264C309.911 222.264 309.543 222.336 309.223 222.48C308.909 222.624 308.642 222.832 308.423 223.104C308.21 223.371 308.047 223.696 307.935 224.08C307.823 224.464 307.767 224.901 307.767 225.392L306.935 225.208C306.935 224.323 307.09 223.579 307.399 222.976C307.709 222.373 308.135 221.917 308.679 221.608C309.223 221.299 309.847 221.144 310.551 221.144C311.069 221.144 311.519 221.224 311.903 221.384C312.293 221.544 312.621 221.76 312.887 222.032C313.159 222.304 313.378 222.616 313.543 222.968C313.709 223.315 313.829 223.685 313.903 224.08C313.978 224.469 314.015 224.859 314.015 225.248V230H312.831ZM306.583 230V221.36H307.647V223.488H307.767V230H306.583ZM320.475 230C319.99 230.101 319.51 230.141 319.035 230.12C318.566 230.099 318.145 229.997 317.771 229.816C317.403 229.635 317.123 229.352 316.931 228.968C316.777 228.648 316.691 228.325 316.675 228C316.665 227.669 316.659 227.293 316.659 226.872V218.96H317.827V226.824C317.827 227.187 317.83 227.491 317.835 227.736C317.846 227.976 317.902 228.189 318.003 228.376C318.195 228.733 318.499 228.947 318.915 229.016C319.337 229.085 319.857 229.069 320.475 228.968V230ZM314.811 222.368V221.36H320.475V222.368H314.811ZM324.33 230.24C323.679 230.24 323.132 230.123 322.69 229.888C322.252 229.653 321.924 229.341 321.706 228.952C321.487 228.563 321.378 228.139 321.378 227.68C321.378 227.211 321.471 226.811 321.658 226.48C321.85 226.144 322.108 225.869 322.434 225.656C322.764 225.443 323.146 225.28 323.578 225.168C324.015 225.061 324.498 224.968 325.026 224.888C325.559 224.803 326.079 224.731 326.586 224.672C327.098 224.608 327.546 224.547 327.93 224.488L327.514 224.744C327.53 223.891 327.364 223.259 327.018 222.848C326.671 222.437 326.068 222.232 325.21 222.232C324.618 222.232 324.116 222.365 323.706 222.632C323.3 222.899 323.015 223.32 322.85 223.896L321.706 223.56C321.903 222.787 322.3 222.187 322.898 221.76C323.495 221.333 324.271 221.12 325.226 221.12C326.015 221.12 326.684 221.269 327.234 221.568C327.788 221.861 328.18 222.288 328.41 222.848C328.516 223.099 328.586 223.379 328.618 223.688C328.65 223.997 328.666 224.312 328.666 224.632V230H327.618V227.832L327.922 227.96C327.628 228.701 327.172 229.267 326.554 229.656C325.935 230.045 325.194 230.24 324.33 230.24ZM324.466 229.224C325.015 229.224 325.495 229.125 325.906 228.928C326.316 228.731 326.647 228.461 326.898 228.12C327.148 227.773 327.311 227.384 327.386 226.952C327.45 226.675 327.484 226.371 327.49 226.04C327.495 225.704 327.498 225.453 327.498 225.288L327.946 225.52C327.546 225.573 327.111 225.627 326.642 225.68C326.178 225.733 325.719 225.795 325.266 225.864C324.818 225.933 324.412 226.016 324.05 226.112C323.804 226.181 323.567 226.28 323.338 226.408C323.108 226.531 322.919 226.696 322.77 226.904C322.626 227.112 322.554 227.371 322.554 227.68C322.554 227.931 322.615 228.173 322.738 228.408C322.866 228.643 323.068 228.837 323.346 228.992C323.628 229.147 324.002 229.224 324.466 229.224ZM335.132 230C334.647 230.101 334.167 230.141 333.692 230.12C333.223 230.099 332.801 229.997 332.428 229.816C332.06 229.635 331.78 229.352 331.588 228.968C331.433 228.648 331.348 228.325 331.332 228C331.321 227.669 331.316 227.293 331.316 226.872V218.96H332.484V226.824C332.484 227.187 332.487 227.491 332.492 227.736C332.503 227.976 332.559 228.189 332.66 228.376C332.852 228.733 333.156 228.947 333.572 229.016C333.993 229.085 334.513 229.069 335.132 228.968V230ZM329.468 222.368V221.36H335.132V222.368H329.468ZM336.674 219.72V218.4H337.85V219.72H336.674ZM336.674 230V221.36H337.85V230H336.674ZM343.537 230.24C342.678 230.24 341.945 230.045 341.337 229.656C340.729 229.267 340.262 228.728 339.937 228.04C339.611 227.352 339.449 226.563 339.449 225.672C339.449 224.765 339.614 223.971 339.945 223.288C340.275 222.605 340.745 222.075 341.353 221.696C341.966 221.312 342.694 221.12 343.537 221.12C344.401 221.12 345.137 221.315 345.745 221.704C346.358 222.088 346.825 222.624 347.145 223.312C347.47 223.995 347.633 224.781 347.633 225.672C347.633 226.579 347.47 227.376 347.145 228.064C346.819 228.747 346.35 229.28 345.737 229.664C345.123 230.048 344.39 230.24 343.537 230.24ZM343.537 229.112C344.497 229.112 345.211 228.795 345.681 228.16C346.15 227.52 346.385 226.691 346.385 225.672C346.385 224.627 346.147 223.795 345.673 223.176C345.203 222.557 344.491 222.248 343.537 222.248C342.891 222.248 342.358 222.395 341.937 222.688C341.521 222.976 341.209 223.379 341.001 223.896C340.798 224.408 340.697 225 340.697 225.672C340.697 226.712 340.937 227.547 341.417 228.176C341.897 228.8 342.603 229.112 343.537 229.112ZM355.317 230V225.592C355.317 225.112 355.272 224.672 355.181 224.272C355.091 223.867 354.944 223.515 354.741 223.216C354.544 222.912 354.285 222.677 353.965 222.512C353.651 222.347 353.267 222.264 352.813 222.264C352.397 222.264 352.029 222.336 351.709 222.48C351.395 222.624 351.128 222.832 350.909 223.104C350.696 223.371 350.533 223.696 350.421 224.08C350.309 224.464 350.253 224.901 350.253 225.392L349.421 225.208C349.421 224.323 349.576 223.579 349.885 222.976C350.195 222.373 350.621 221.917 351.165 221.608C351.709 221.299 352.333 221.144 353.037 221.144C353.555 221.144 354.005 221.224 354.389 221.384C354.779 221.544 355.107 221.76 355.373 222.032C355.645 222.304 355.864 222.616 356.029 222.968C356.195 223.315 356.315 223.685 356.389 224.08C356.464 224.469 356.501 224.859 356.501 225.248V230H355.317ZM349.069 230V221.36H350.133V223.488H350.253V230H349.069Z" fill="#808080"/>
</g>
<rect x="0.5" y="0.75" width="603" height="286" stroke="black"/>
<defs>
<linearGradient id="paint0_linear_4706_1381" x1="302.922" y1="45" x2="302.922" y2="242.845" gradientUnits="userSpaceOnUse">
<stop stop-color="#838383"/>
<stop offset="0.424" stop-color="#1C1C1C"/>
<stop offset="1" stop-color="#212121"/>
</linearGradient>
<linearGradient id="paint1_linear_4706_1381" x1="302.898" y1="0.25" x2="302.898" y2="286.453" gradientUnits="userSpaceOnUse">
<stop stop-color="#838383"/>
<stop offset="0.424" stop-color="#1C1C1C"/>
<stop offset="1" stop-color="#212121"/>
</linearGradient>
<linearGradient id="paint2_linear_4706_1381" x1="302.5" y1="144.149" x2="159" y2="144.149" gradientUnits="userSpaceOnUse">
<stop stop-color="#D9D9D9" stop-opacity="0.1"/>
<stop offset="0.574" stop-color="#737373" stop-opacity="0"/>
</linearGradient>
<radialGradient id="paint3_radial_4706_1381" cx="0" cy="0" r="1" gradientUnits="userSpaceOnUse" gradientTransform="translate(301.602 144.339) scale(15.9643)">
<stop offset="0.5" stop-color="#FDE030"/>
<stop offset="0.9188" stop-color="#F7C02B"/>
<stop offset="1" stop-color="#F4A223"/>
</radialGradient>
<linearGradient id="paint4_linear_4706_1381" x1="159.5" y1="113" x2="159.5" y2="151" gradientUnits="userSpaceOnUse">
<stop stop-color="#838383"/>
<stop offset="0.424" stop-color="#333333"/>
<stop offset="1" stop-color="#212121"/>
</linearGradient>
<linearGradient id="paint5_linear_4706_1381" x1="223.5" y1="7" x2="223.5" y2="45" gradientUnits="userSpaceOnUse">
<stop stop-color="#838383"/>
<stop offset="0.424" stop-color="#333333"/>
<stop offset="1" stop-color="#212121"/>
</linearGradient>
<linearGradient id="paint6_linear_4706_1381" x1="378" y1="13" x2="378" y2="51" gradientUnits="userSpaceOnUse">
<stop stop-color="#838383"/>
<stop offset="0.424" stop-color="#333333"/>
<stop offset="1" stop-color="#212121"/>
</linearGradient>
<linearGradient id="paint7_linear_4706_1381" x1="298.5" y1="205" x2="298.5" y2="243" gradientUnits="userSpaceOnUse">
<stop stop-color="#838383"/>
<stop offset="0.424" stop-color="#333333"/>
<stop offset="1" stop-color="#212121"/>
</linearGradient>
<clipPath id="clip0_4706_1381">
<rect y="0.25" width="604" height="287" fill="white"/>
</clipPath>
</defs>
</svg>
