<svg width="24" height="25" viewBox="0 0 24 25" fill="none" xmlns="http://www.w3.org/2000/svg">
<path d="M7.67041 2.49976H16.3403C17.9746 2.49976 19.3221 3.07249 20.2612 4.05542C21.2011 5.03934 21.7505 6.45381 21.7505 8.16968V16.3396C21.7505 18.0505 21.2013 19.4633 20.2612 20.446C19.3221 21.4278 17.9745 21.9998 16.3403 21.9998H7.67041C6.03613 21.9997 4.6863 21.427 3.74463 20.4451C2.8022 19.4622 2.25049 18.0501 2.25049 16.3396V8.16968C2.25051 6.45402 2.8022 5.03945 3.74463 4.05542C4.68628 3.07232 6.03614 2.49977 7.67041 2.49976Z" fill="#212121" stroke="url(#paint0_linear_4706_1475)" stroke-width="0.5"/>
<path d="M15.2954 9.61182C15.4422 9.46514 15.678 9.4651 15.8247 9.61182C15.9714 9.75854 15.9714 9.99537 15.8247 10.1421L11.0786 14.8882C11.0056 14.9612 10.9104 14.9976 10.813 14.9976C10.7157 14.9974 10.6213 14.9611 10.5483 14.8882L8.17529 12.5151C8.02827 12.3681 8.02856 12.1312 8.17432 11.9858H8.17529C8.32278 11.8384 8.5586 11.8389 8.70459 11.9849L10.813 14.0933L11.1675 13.7397L15.2954 9.61182Z" fill="white" stroke="white"/>
<defs>
<linearGradient id="paint0_linear_4706_1475" x1="12.0005" y1="2.24976" x2="12.0005" y2="22.2498" gradientUnits="userSpaceOnUse">
<stop stop-color="#838383"/>
<stop offset="0.424" stop-color="#333333"/>
<stop offset="1" stop-color="#212121"/>
</linearGradient>
</defs>
</svg>
