<svg width="24" height="25" viewBox="0 0 24 25" fill="none" xmlns="http://www.w3.org/2000/svg">
<path d="M7.67041 2.49976H16.3403C17.9746 2.49976 19.3221 3.07249 20.2612 4.05542C21.2011 5.03934 21.7505 6.45381 21.7505 8.16968V16.3396C21.7505 18.0505 21.2013 19.4633 20.2612 20.446C19.3221 21.4278 17.9745 21.9998 16.3403 21.9998H7.67041C6.03613 21.9997 4.6863 21.427 3.74463 20.4451C2.8022 19.4622 2.25049 18.0501 2.25049 16.3396V8.16968C2.25051 6.45402 2.8022 5.03945 3.74463 4.05542C4.68628 3.07232 6.03614 2.49977 7.67041 2.49976Z" fill="#212121" stroke="url(#paint0_linear_4706_1427)" stroke-width="0.5"/>
<path d="M15.0485 15.9998C15.2923 15.9998 15.5361 15.9058 15.7215 15.7204C16.0935 15.3483 16.0935 14.7451 15.7215 14.373L13.342 11.9945L15.7075 9.62746C16.0795 9.25538 16.0795 8.65343 15.7075 8.28135C15.3355 7.90928 14.7336 7.90928 14.3616 8.28135L11.9948 10.6484L9.62548 8.27881C9.25345 7.90674 8.65154 7.90674 8.27951 8.27881C7.90748 8.65089 7.90748 9.25284 8.27951 9.62492L10.6489 11.9945L8.27951 14.3667C7.90748 14.7388 7.90748 15.3407 8.27951 15.7128C8.46489 15.8994 8.70995 15.9921 8.95247 15.9921C9.19631 15.9921 9.4401 15.8994 9.62548 15.7128L11.9961 13.3419L14.3743 15.7204C14.5609 15.9058 14.8034 15.9998 15.0485 15.9998Z" fill="#F04438"/>
<defs>
<linearGradient id="paint0_linear_4706_1427" x1="12.0005" y1="2.24976" x2="12.0005" y2="22.2498" gradientUnits="userSpaceOnUse">
<stop stop-color="#838383"/>
<stop offset="0.424" stop-color="#333333"/>
<stop offset="1" stop-color="#212121"/>
</linearGradient>
</defs>
</svg>
