<svg width="10" height="10" viewBox="0 0 10 10" fill="none" xmlns="http://www.w3.org/2000/svg">
<path d="M2.22249 5.66715C2.00148 5.66715 1.78952 5.57936 1.63324 5.42308C1.47696 5.2668 1.38916 5.05484 1.38916 4.83382C1.38916 4.61281 1.47696 4.40085 1.63324 4.24457C1.78952 4.08829 2.00148 4.00049 2.22249 4.00049C2.44351 4.00049 2.65547 4.08829 2.81175 4.24457C2.96803 4.40085 3.05583 4.61281 3.05583 4.83382C3.05583 5.05484 2.96803 5.2668 2.81175 5.42308C2.65547 5.57936 2.44351 5.66715 2.22249 5.66715ZM5.00027 5.66715C4.77926 5.66715 4.5673 5.57936 4.41102 5.42308C4.25474 5.2668 4.16694 5.05484 4.16694 4.83382C4.16694 4.61281 4.25474 4.40085 4.41102 4.24457C4.5673 4.08829 4.77926 4.00049 5.00027 4.00049C5.22129 4.00049 5.43325 4.08829 5.58953 4.24457C5.74581 4.40085 5.8336 4.61281 5.8336 4.83382C5.8336 5.05484 5.74581 5.2668 5.58953 5.42308C5.43325 5.57936 5.22129 5.66715 5.00027 5.66715ZM7.77805 5.66715C7.55704 5.66715 7.34507 5.57936 7.18879 5.42308C7.03251 5.2668 6.94472 5.05484 6.94472 4.83382C6.94472 4.61281 7.03251 4.40085 7.18879 4.24457C7.34507 4.08829 7.55704 4.00049 7.77805 4.00049C7.99906 4.00049 8.21102 4.08829 8.36731 4.24457C8.52359 4.40085 8.61138 4.61281 8.61138 4.83382C8.61138 5.05484 8.52359 5.2668 8.36731 5.42308C8.21102 5.57936 7.99906 5.66715 7.77805 5.66715Z" fill="#E7E7E7"/>
</svg>
