<svg width="24" height="25" viewBox="0 0 24 25" fill="none" xmlns="http://www.w3.org/2000/svg">
<path fill-rule="evenodd" clip-rule="evenodd" d="M12.0028 4.50049C16.1388 4.50349 19.8527 7.40249 21.9387 12.2565C22.0208 12.4455 22.0208 12.6595 21.9387 12.8485C19.8537 17.7035 16.1388 20.6025 12.0028 20.6055H11.9967C7.86075 20.6025 4.14675 17.7035 2.06075 12.8485C1.97975 12.6595 1.97975 12.4455 2.06075 12.2565C4.14675 7.40249 7.86175 4.50349 11.9967 4.50049H12.0028ZM11.9998 6.00049C8.56375 6.00149 5.42975 8.44449 3.56975 12.5525C5.42975 16.6615 8.56275 19.1045 11.9998 19.1055C15.4368 19.1045 18.5697 16.6615 20.4297 12.5525C18.5697 8.44449 15.4368 6.00149 11.9998 6.00049ZM11.9995 8.64129C14.1565 8.64129 15.9115 10.3963 15.9115 12.5533C15.9115 14.7093 14.1565 16.4633 11.9995 16.4633C9.84245 16.4633 8.08845 14.7093 8.08845 12.5533C8.08845 10.3963 9.84245 8.64129 11.9995 8.64129ZM11.9995 10.1413C10.6695 10.1413 9.58845 11.2233 9.58845 12.5533C9.58845 13.8823 10.6695 14.9633 11.9995 14.9633C13.3295 14.9633 14.4115 13.8823 14.4115 12.5533C14.4115 11.2233 13.3295 10.1413 11.9995 10.1413Z" fill="#FEFFFF"/>
</svg>
