<svg width="604" height="275" viewBox="0 0 604 275" fill="none" xmlns="http://www.w3.org/2000/svg">
<g clip-path="url(#clip0_4671_18177)">
<circle cx="303.378" cy="140.378" r="69.75" stroke="url(#paint0_linear_4671_18177)" stroke-width="0.877359"/>
<circle cx="303.377" cy="140.377" r="104.844" stroke="url(#paint1_linear_4671_18177)" stroke-width="0.877359"/>
<circle cx="302.5" cy="139.5" r="139.061" stroke="url(#paint2_linear_4671_18177)" stroke-width="0.877359"/>
<rect x="101.208" y="124.208" width="122.584" height="37.5837" rx="18.7919" fill="#212121"/>
<rect x="101.208" y="124.208" width="122.584" height="37.5837" rx="18.7919" stroke="url(#paint3_linear_4671_18177)" stroke-width="0.416295"/>
<path d="M122.784 149.24C121.637 149.24 120.669 148.987 119.88 148.48C119.091 147.968 118.493 147.261 118.088 146.36C117.683 145.459 117.48 144.419 117.48 143.24C117.48 142.061 117.683 141.021 118.088 140.12C118.493 139.219 119.091 138.515 119.88 138.008C120.669 137.496 121.637 137.24 122.784 137.24C123.936 137.24 124.904 137.496 125.688 138.008C126.477 138.515 127.075 139.219 127.48 140.12C127.891 141.021 128.096 142.061 128.096 143.24C128.096 144.419 127.891 145.459 127.48 146.36C127.075 147.261 126.477 147.968 125.688 148.48C124.904 148.987 123.936 149.24 122.784 149.24ZM122.784 148.112C123.685 148.112 124.437 147.907 125.04 147.496C125.643 147.085 126.093 146.515 126.392 145.784C126.696 145.048 126.848 144.2 126.848 143.24C126.848 142.28 126.696 141.435 126.392 140.704C126.093 139.973 125.643 139.403 125.04 138.992C124.437 138.581 123.685 138.373 122.784 138.368C121.883 138.368 121.133 138.573 120.536 138.984C119.939 139.395 119.488 139.968 119.184 140.704C118.885 141.435 118.733 142.28 118.728 143.24C118.723 144.2 118.869 145.045 119.168 145.776C119.472 146.501 119.925 147.072 120.528 147.488C121.131 147.899 121.883 148.107 122.784 148.112ZM133.258 149.24C132.463 149.24 131.791 149.04 131.242 148.64C130.693 148.235 130.277 147.688 129.994 147C129.711 146.307 129.57 145.531 129.57 144.672C129.57 143.797 129.711 143.019 129.994 142.336C130.282 141.648 130.703 141.107 131.258 140.712C131.813 140.317 132.495 140.12 133.306 140.12C134.095 140.12 134.773 140.32 135.338 140.72C135.903 141.12 136.335 141.664 136.634 142.352C136.938 143.04 137.09 143.813 137.09 144.672C137.09 145.536 136.938 146.312 136.634 147C136.33 147.688 135.893 148.235 135.322 148.64C134.751 149.04 134.063 149.24 133.258 149.24ZM129.37 152.84V140.36H130.426V146.864H130.554V152.84H129.37ZM133.138 148.144C133.741 148.144 134.242 147.992 134.642 147.688C135.042 147.384 135.341 146.971 135.538 146.448C135.741 145.92 135.842 145.328 135.842 144.672C135.842 144.021 135.743 143.435 135.546 142.912C135.349 142.389 135.047 141.976 134.642 141.672C134.242 141.368 133.733 141.216 133.114 141.216C132.511 141.216 132.01 141.363 131.61 141.656C131.215 141.949 130.919 142.357 130.722 142.88C130.525 143.397 130.426 143.995 130.426 144.672C130.426 145.339 130.525 145.936 130.722 146.464C130.919 146.987 131.218 147.397 131.618 147.696C132.018 147.995 132.525 148.144 133.138 148.144ZM143.231 149C142.746 149.101 142.266 149.141 141.791 149.12C141.322 149.099 140.9 148.997 140.527 148.816C140.159 148.635 139.879 148.352 139.687 147.968C139.532 147.648 139.447 147.325 139.431 147C139.42 146.669 139.415 146.293 139.415 145.872V137.96H140.583V145.824C140.583 146.187 140.586 146.491 140.591 146.736C140.602 146.976 140.658 147.189 140.759 147.376C140.951 147.733 141.255 147.947 141.671 148.016C142.092 148.085 142.612 148.069 143.231 147.968V149ZM137.567 141.368V140.36H143.231V141.368H137.567ZM144.773 138.72V137.4H145.949V138.72H144.773ZM144.773 149V140.36H145.949V149H144.773ZM158.332 149L158.339 143.328C158.339 142.661 158.153 142.139 157.78 141.76C157.411 141.376 156.942 141.184 156.372 141.184C156.046 141.184 155.729 141.259 155.419 141.408C155.11 141.557 154.854 141.797 154.651 142.128C154.454 142.459 154.355 142.891 154.355 143.424L153.659 143.224C153.643 142.605 153.763 142.064 154.019 141.6C154.281 141.136 154.638 140.776 155.091 140.52C155.55 140.259 156.067 140.128 156.643 140.128C157.513 140.128 158.209 140.397 158.731 140.936C159.254 141.469 159.516 142.192 159.516 143.104L159.507 149H158.332ZM148.019 149V140.36H149.075V142.488H149.203V149H148.019ZM153.187 149L153.195 143.408C153.195 142.72 153.011 142.179 152.643 141.784C152.281 141.384 151.801 141.184 151.203 141.184C150.606 141.184 150.123 141.389 149.755 141.8C149.387 142.205 149.203 142.747 149.203 143.424L148.499 143.04C148.499 142.485 148.63 141.989 148.891 141.552C149.153 141.109 149.51 140.763 149.963 140.512C150.417 140.256 150.931 140.128 151.507 140.128C152.057 140.128 152.545 140.245 152.971 140.48C153.403 140.715 153.742 141.056 153.987 141.504C154.233 141.952 154.355 142.496 154.355 143.136L154.347 149H153.187ZM161.43 138.72V137.4H162.606V138.72H161.43ZM161.43 149V140.36H162.606V149H161.43ZM163.884 149V148.752L169.46 141.456H164.3V140.36H171.396V140.632L165.828 147.904H171.092V149H163.884ZM174.821 149.24C174.17 149.24 173.623 149.123 173.181 148.888C172.743 148.653 172.415 148.341 172.197 147.952C171.978 147.563 171.869 147.139 171.869 146.68C171.869 146.211 171.962 145.811 172.149 145.48C172.341 145.144 172.599 144.869 172.925 144.656C173.255 144.443 173.637 144.28 174.069 144.168C174.506 144.061 174.989 143.968 175.517 143.888C176.05 143.803 176.57 143.731 177.077 143.672C177.589 143.608 178.037 143.547 178.421 143.488L178.005 143.744C178.021 142.891 177.855 142.259 177.509 141.848C177.162 141.437 176.559 141.232 175.701 141.232C175.109 141.232 174.607 141.365 174.197 141.632C173.791 141.899 173.506 142.32 173.341 142.896L172.197 142.56C172.394 141.787 172.791 141.187 173.389 140.76C173.986 140.333 174.762 140.12 175.717 140.12C176.506 140.12 177.175 140.269 177.725 140.568C178.279 140.861 178.671 141.288 178.901 141.848C179.007 142.099 179.077 142.379 179.109 142.688C179.141 142.997 179.157 143.312 179.157 143.632V149H178.109V146.832L178.413 146.96C178.119 147.701 177.663 148.267 177.045 148.656C176.426 149.045 175.685 149.24 174.821 149.24ZM174.957 148.224C175.506 148.224 175.986 148.125 176.397 147.928C176.807 147.731 177.138 147.461 177.389 147.12C177.639 146.773 177.802 146.384 177.877 145.952C177.941 145.675 177.975 145.371 177.981 145.04C177.986 144.704 177.989 144.453 177.989 144.288L178.437 144.52C178.037 144.573 177.602 144.627 177.133 144.68C176.669 144.733 176.21 144.795 175.757 144.864C175.309 144.933 174.903 145.016 174.541 145.112C174.295 145.181 174.058 145.28 173.829 145.408C173.599 145.531 173.41 145.696 173.261 145.904C173.117 146.112 173.045 146.371 173.045 146.68C173.045 146.931 173.106 147.173 173.229 147.408C173.357 147.643 173.559 147.837 173.837 147.992C174.119 148.147 174.493 148.224 174.957 148.224ZM185.623 149C185.138 149.101 184.658 149.141 184.183 149.12C183.714 149.099 183.293 148.997 182.919 148.816C182.551 148.635 182.271 148.352 182.079 147.968C181.925 147.648 181.839 147.325 181.823 147C181.813 146.669 181.807 146.293 181.807 145.872V137.96H182.975V145.824C182.975 146.187 182.978 146.491 182.983 146.736C182.994 146.976 183.05 147.189 183.151 147.376C183.343 147.733 183.647 147.947 184.063 148.016C184.485 148.085 185.005 148.069 185.623 147.968V149ZM179.959 141.368V140.36H185.623V141.368H179.959ZM187.166 138.72V137.4H188.342V138.72H187.166ZM187.166 149V140.36H188.342V149H187.166ZM194.028 149.24C193.169 149.24 192.436 149.045 191.828 148.656C191.22 148.267 190.753 147.728 190.428 147.04C190.103 146.352 189.94 145.563 189.94 144.672C189.94 143.765 190.105 142.971 190.436 142.288C190.767 141.605 191.236 141.075 191.844 140.696C192.457 140.312 193.185 140.12 194.028 140.12C194.892 140.12 195.628 140.315 196.236 140.704C196.849 141.088 197.316 141.624 197.636 142.312C197.961 142.995 198.124 143.781 198.124 144.672C198.124 145.579 197.961 146.376 197.636 147.064C197.311 147.747 196.841 148.28 196.228 148.664C195.615 149.048 194.881 149.24 194.028 149.24ZM194.028 148.112C194.988 148.112 195.703 147.795 196.172 147.16C196.641 146.52 196.876 145.691 196.876 144.672C196.876 143.627 196.639 142.795 196.164 142.176C195.695 141.557 194.983 141.248 194.028 141.248C193.383 141.248 192.849 141.395 192.428 141.688C192.012 141.976 191.7 142.379 191.492 142.896C191.289 143.408 191.188 144 191.188 144.672C191.188 145.712 191.428 146.547 191.908 147.176C192.388 147.8 193.095 148.112 194.028 148.112ZM205.809 149V144.592C205.809 144.112 205.763 143.672 205.673 143.272C205.582 142.867 205.435 142.515 205.233 142.216C205.035 141.912 204.777 141.677 204.457 141.512C204.142 141.347 203.758 141.264 203.305 141.264C202.889 141.264 202.521 141.336 202.201 141.48C201.886 141.624 201.619 141.832 201.401 142.104C201.187 142.371 201.025 142.696 200.913 143.08C200.801 143.464 200.745 143.901 200.745 144.392L199.913 144.208C199.913 143.323 200.067 142.579 200.377 141.976C200.686 141.373 201.113 140.917 201.657 140.608C202.201 140.299 202.825 140.144 203.529 140.144C204.046 140.144 204.497 140.224 204.881 140.384C205.27 140.544 205.598 140.76 205.865 141.032C206.137 141.304 206.355 141.616 206.521 141.968C206.686 142.315 206.806 142.685 206.881 143.08C206.955 143.469 206.993 143.859 206.993 144.248V149H205.809ZM199.561 149V140.36H200.625V142.488H200.745V149H199.561Z" fill="white"/>
<rect x="269.555" y="110.555" width="65.497" height="65.497" rx="32.7485" fill="#212121"/>
<rect x="269.555" y="110.555" width="65.497" height="65.497" rx="32.7485" stroke="url(#paint4_linear_4671_18177)" stroke-width="1.11012"/>
<g clip-path="url(#clip1_4671_18177)">
<path fill-rule="evenodd" clip-rule="evenodd" d="M306.93 136.381C305.561 135.467 303.951 134.978 302.304 134.978V126.652C305.598 126.652 308.817 127.629 311.555 129.459C314.294 131.288 316.428 133.889 317.688 136.932C318.949 139.974 319.278 143.323 318.636 146.553C317.993 149.783 316.408 152.75 314.079 155.079C311.75 157.408 308.783 158.993 305.553 159.636C302.323 160.278 298.974 159.949 295.932 158.688C292.889 157.428 290.288 155.294 288.459 152.555C286.629 149.817 285.652 146.598 285.652 143.304H293.978C293.978 144.951 294.467 146.561 295.381 147.93C296.296 149.299 297.597 150.366 299.118 150.996C300.639 151.626 302.313 151.791 303.928 151.47C305.543 151.149 307.027 150.356 308.191 149.191C309.356 148.027 310.149 146.543 310.47 144.928C310.791 143.313 310.626 141.639 309.996 140.118C309.366 138.597 308.299 137.296 306.93 136.381Z" fill="#F0F4FD"/>
<path fill-rule="evenodd" clip-rule="evenodd" d="M293.978 126.652C293.978 127.746 293.763 128.828 293.344 129.839C292.926 130.849 292.313 131.767 291.54 132.54C290.767 133.313 289.849 133.926 288.839 134.344C287.828 134.763 286.746 134.978 285.652 134.978L285.652 143.304C287.839 143.304 290.004 142.873 292.025 142.037C294.045 141.2 295.881 139.973 297.427 138.427C298.973 136.881 300.2 135.045 301.037 133.025C301.873 131.004 302.304 128.839 302.304 126.652L293.978 126.652Z" fill="#F0F4FD"/>
</g>
<rect x="261.208" y="23.2081" width="81.5837" height="37.5837" rx="18.7919" fill="#212121"/>
<rect x="261.208" y="23.2081" width="81.5837" height="37.5837" rx="18.7919" stroke="url(#paint5_linear_4671_18177)" stroke-width="0.416295"/>
<path d="M278.28 48V36.48H279.456V48H278.28ZM287.774 48V43.592C287.774 43.112 287.729 42.672 287.638 42.272C287.548 41.8667 287.401 41.5147 287.198 41.216C287.001 40.912 286.742 40.6773 286.422 40.512C286.108 40.3467 285.724 40.264 285.27 40.264C284.854 40.264 284.486 40.336 284.166 40.48C283.852 40.624 283.585 40.832 283.366 41.104C283.153 41.3707 282.99 41.696 282.878 42.08C282.766 42.464 282.71 42.9013 282.71 43.392L281.878 43.208C281.878 42.3227 282.033 41.5787 282.342 40.976C282.652 40.3733 283.078 39.9173 283.622 39.608C284.166 39.2987 284.79 39.144 285.494 39.144C286.012 39.144 286.462 39.224 286.846 39.384C287.236 39.544 287.564 39.76 287.83 40.032C288.102 40.304 288.321 40.616 288.486 40.968C288.652 41.3147 288.772 41.6853 288.846 42.08C288.921 42.4693 288.958 42.8587 288.958 43.248V48H287.774ZM281.526 48V39.36H282.59V41.488H282.71V48H281.526ZM294.066 48.24C293.261 48.24 292.573 48.04 292.002 47.64C291.432 47.2347 290.994 46.688 290.69 46C290.386 45.312 290.234 44.536 290.234 43.672C290.234 42.8133 290.384 42.04 290.682 41.352C290.986 40.664 291.421 40.12 291.986 39.72C292.552 39.32 293.229 39.12 294.018 39.12C294.829 39.12 295.512 39.3173 296.066 39.712C296.621 40.1067 297.04 40.648 297.322 41.336C297.61 42.0187 297.754 42.7973 297.754 43.672C297.754 44.5307 297.613 45.3067 297.33 46C297.048 46.688 296.632 47.2347 296.082 47.64C295.533 48.04 294.861 48.24 294.066 48.24ZM294.186 47.144C294.8 47.144 295.306 46.9947 295.706 46.696C296.106 46.3973 296.405 45.9867 296.602 45.464C296.8 44.936 296.898 44.3387 296.898 43.672C296.898 42.9947 296.8 42.3973 296.602 41.88C296.405 41.3573 296.106 40.9493 295.706 40.656C295.312 40.3627 294.813 40.216 294.21 40.216C293.592 40.216 293.08 40.368 292.674 40.672C292.269 40.976 291.968 41.3893 291.77 41.912C291.578 42.4347 291.482 43.0213 291.482 43.672C291.482 44.328 291.581 44.92 291.778 45.448C291.981 45.9707 292.282 46.384 292.682 46.688C293.082 46.992 293.584 47.144 294.186 47.144ZM296.77 51.84V45.864H296.898V39.36H297.954V51.84H296.77ZM303.183 48.216C302.665 48.216 302.212 48.136 301.823 47.976C301.439 47.816 301.111 47.6 300.839 47.328C300.572 47.056 300.356 46.7467 300.191 46.4C300.025 46.048 299.905 45.6773 299.831 45.288C299.756 44.8933 299.719 44.5013 299.719 44.112V39.36H300.903V43.768C300.903 44.2427 300.948 44.6827 301.039 45.088C301.129 45.4933 301.273 45.848 301.471 46.152C301.673 46.4507 301.932 46.6827 302.247 46.848C302.567 47.0133 302.953 47.096 303.407 47.096C303.823 47.096 304.188 47.024 304.503 46.88C304.823 46.736 305.089 46.5307 305.303 46.264C305.521 45.992 305.687 45.664 305.799 45.28C305.911 44.8907 305.967 44.4533 305.967 43.968L306.799 44.152C306.799 45.0373 306.644 45.7813 306.335 46.384C306.025 46.9867 305.599 47.4427 305.055 47.752C304.511 48.0613 303.887 48.216 303.183 48.216ZM306.087 48V45.872H305.967V39.36H307.143V48H306.087ZM309.219 37.72V36.4H310.395V37.72H309.219ZM309.219 48V39.36H310.395V48H309.219ZM312.473 48V39.36H313.529V41.44L313.321 41.168C313.417 40.912 313.542 40.6773 313.697 40.464C313.852 40.2453 314.02 40.0667 314.201 39.928C314.425 39.7307 314.686 39.5813 314.985 39.48C315.284 39.3733 315.585 39.312 315.889 39.296C316.193 39.2747 316.47 39.296 316.721 39.36V40.464C316.406 40.384 316.062 40.3653 315.689 40.408C315.316 40.4507 314.972 40.6 314.657 40.856C314.369 41.08 314.153 41.3493 314.009 41.664C313.865 41.9733 313.769 42.304 313.721 42.656C313.673 43.0027 313.649 43.3467 313.649 43.688V48H312.473ZM321.419 48.24C320.576 48.24 319.845 48.0533 319.227 47.68C318.613 47.3067 318.136 46.7813 317.795 46.104C317.453 45.4267 317.283 44.632 317.283 43.72C317.283 42.776 317.451 41.96 317.787 41.272C318.123 40.584 318.595 40.0533 319.203 39.68C319.816 39.3067 320.539 39.12 321.371 39.12C322.224 39.12 322.952 39.3173 323.555 39.712C324.157 40.1013 324.613 40.6613 324.923 41.392C325.232 42.1227 325.373 42.9947 325.347 44.008H324.147V43.592C324.125 42.472 323.883 41.6267 323.419 41.056C322.96 40.4853 322.288 40.2 321.403 40.2C320.475 40.2 319.763 40.5013 319.267 41.104C318.776 41.7067 318.531 42.5653 318.531 43.68C318.531 44.768 318.776 45.6133 319.267 46.216C319.763 46.8133 320.464 47.112 321.371 47.112C321.989 47.112 322.528 46.9707 322.987 46.688C323.451 46.4 323.816 45.9867 324.083 45.448L325.179 45.872C324.837 46.624 324.333 47.208 323.667 47.624C323.005 48.0347 322.256 48.24 321.419 48.24ZM318.115 44.008V43.024H324.715V44.008H318.115Z" fill="white"/>
<rect x="388.208" y="121.208" width="107.584" height="37.5837" rx="18.7919" fill="#212121"/>
<rect x="388.208" y="121.208" width="107.584" height="37.5837" rx="18.7919" stroke="url(#paint6_linear_4671_18177)" stroke-width="0.416295"/>
<path d="M405.28 146V134.48H406.456V146H405.28ZM414.774 146V141.592C414.774 141.112 414.729 140.672 414.638 140.272C414.548 139.867 414.401 139.515 414.198 139.216C414.001 138.912 413.742 138.677 413.422 138.512C413.108 138.347 412.724 138.264 412.27 138.264C411.854 138.264 411.486 138.336 411.166 138.48C410.852 138.624 410.585 138.832 410.366 139.104C410.153 139.371 409.99 139.696 409.878 140.08C409.766 140.464 409.71 140.901 409.71 141.392L408.878 141.208C408.878 140.323 409.033 139.579 409.342 138.976C409.652 138.373 410.078 137.917 410.622 137.608C411.166 137.299 411.79 137.144 412.494 137.144C413.012 137.144 413.462 137.224 413.846 137.384C414.236 137.544 414.564 137.76 414.83 138.032C415.102 138.304 415.321 138.616 415.486 138.968C415.652 139.315 415.772 139.685 415.846 140.08C415.921 140.469 415.958 140.859 415.958 141.248V146H414.774ZM408.526 146V137.36H409.59V139.488H409.71V146H408.526ZM420.938 146.232C419.925 146.232 419.09 146.013 418.434 145.576C417.784 145.139 417.384 144.531 417.234 143.752L418.434 143.552C418.562 144.043 418.853 144.435 419.306 144.728C419.765 145.016 420.33 145.16 421.002 145.16C421.658 145.16 422.176 145.024 422.554 144.752C422.933 144.475 423.122 144.099 423.122 143.624C423.122 143.357 423.061 143.141 422.938 142.976C422.821 142.805 422.578 142.648 422.21 142.504C421.842 142.36 421.293 142.189 420.562 141.992C419.778 141.779 419.165 141.565 418.722 141.352C418.28 141.139 417.965 140.893 417.778 140.616C417.592 140.333 417.498 139.989 417.498 139.584C417.498 139.093 417.637 138.664 417.914 138.296C418.192 137.923 418.576 137.635 419.066 137.432C419.557 137.224 420.128 137.12 420.778 137.12C421.429 137.12 422.01 137.227 422.522 137.44C423.04 137.648 423.456 137.941 423.77 138.32C424.085 138.699 424.272 139.139 424.33 139.64L423.13 139.856C423.05 139.349 422.797 138.949 422.37 138.656C421.949 138.357 421.413 138.203 420.762 138.192C420.149 138.176 419.65 138.293 419.266 138.544C418.882 138.789 418.69 139.117 418.69 139.528C418.69 139.757 418.76 139.955 418.898 140.12C419.037 140.28 419.288 140.432 419.65 140.576C420.018 140.72 420.541 140.877 421.218 141.048C422.013 141.251 422.637 141.464 423.09 141.688C423.544 141.912 423.866 142.176 424.058 142.48C424.25 142.784 424.346 143.16 424.346 143.608C424.346 144.424 424.042 145.067 423.434 145.536C422.832 146 422 146.232 420.938 146.232ZM429.681 146.24C428.886 146.24 428.214 146.04 427.665 145.64C427.115 145.235 426.699 144.688 426.417 144C426.134 143.307 425.993 142.531 425.993 141.672C425.993 140.797 426.134 140.019 426.417 139.336C426.705 138.648 427.126 138.107 427.681 137.712C428.235 137.317 428.918 137.12 429.729 137.12C430.518 137.12 431.195 137.32 431.761 137.72C432.326 138.12 432.758 138.664 433.057 139.352C433.361 140.04 433.513 140.813 433.513 141.672C433.513 142.536 433.361 143.312 433.057 144C432.753 144.688 432.315 145.235 431.745 145.64C431.174 146.04 430.486 146.24 429.681 146.24ZM425.793 149.84V137.36H426.849V143.864H426.977V149.84H425.793ZM429.561 145.144C430.163 145.144 430.665 144.992 431.065 144.688C431.465 144.384 431.763 143.971 431.961 143.448C432.163 142.92 432.265 142.328 432.265 141.672C432.265 141.021 432.166 140.435 431.969 139.912C431.771 139.389 431.47 138.976 431.065 138.672C430.665 138.368 430.155 138.216 429.537 138.216C428.934 138.216 428.433 138.363 428.033 138.656C427.638 138.949 427.342 139.357 427.145 139.88C426.947 140.397 426.849 140.995 426.849 141.672C426.849 142.339 426.947 142.936 427.145 143.464C427.342 143.987 427.641 144.397 428.041 144.696C428.441 144.995 428.947 145.144 429.561 145.144ZM435.109 135.72V134.4H436.285V135.72H435.109ZM435.109 146V137.36H436.285V146H435.109ZM438.364 146V137.36H439.42V139.44L439.212 139.168C439.308 138.912 439.433 138.677 439.588 138.464C439.742 138.245 439.91 138.067 440.092 137.928C440.316 137.731 440.577 137.581 440.876 137.48C441.174 137.373 441.476 137.312 441.78 137.296C442.084 137.275 442.361 137.296 442.612 137.36V138.464C442.297 138.384 441.953 138.365 441.58 138.408C441.206 138.451 440.862 138.6 440.548 138.856C440.26 139.08 440.044 139.349 439.9 139.664C439.756 139.973 439.66 140.304 439.612 140.656C439.564 141.003 439.54 141.347 439.54 141.688V146H438.364ZM445.953 146.24C445.303 146.24 444.756 146.123 444.313 145.888C443.876 145.653 443.548 145.341 443.329 144.952C443.111 144.563 443.001 144.139 443.001 143.68C443.001 143.211 443.095 142.811 443.281 142.48C443.473 142.144 443.732 141.869 444.057 141.656C444.388 141.443 444.769 141.28 445.201 141.168C445.639 141.061 446.121 140.968 446.649 140.888C447.183 140.803 447.703 140.731 448.209 140.672C448.721 140.608 449.169 140.547 449.553 140.488L449.137 140.744C449.153 139.891 448.988 139.259 448.641 138.848C448.295 138.437 447.692 138.232 446.833 138.232C446.241 138.232 445.74 138.365 445.329 138.632C444.924 138.899 444.639 139.32 444.473 139.896L443.329 139.56C443.527 138.787 443.924 138.187 444.521 137.76C445.119 137.333 445.895 137.12 446.849 137.12C447.639 137.12 448.308 137.269 448.857 137.568C449.412 137.861 449.804 138.288 450.033 138.848C450.14 139.099 450.209 139.379 450.241 139.688C450.273 139.997 450.289 140.312 450.289 140.632V146H449.241V143.832L449.545 143.96C449.252 144.701 448.796 145.267 448.177 145.656C447.559 146.045 446.817 146.24 445.953 146.24ZM446.089 145.224C446.639 145.224 447.119 145.125 447.529 144.928C447.94 144.731 448.271 144.461 448.521 144.12C448.772 143.773 448.935 143.384 449.009 142.952C449.073 142.675 449.108 142.371 449.113 142.04C449.119 141.704 449.121 141.453 449.121 141.288L449.569 141.52C449.169 141.573 448.735 141.627 448.265 141.68C447.801 141.733 447.343 141.795 446.889 141.864C446.441 141.933 446.036 142.016 445.673 142.112C445.428 142.181 445.191 142.28 444.961 142.408C444.732 142.531 444.543 142.696 444.393 142.904C444.249 143.112 444.177 143.371 444.177 143.68C444.177 143.931 444.239 144.173 444.361 144.408C444.489 144.643 444.692 144.837 444.969 144.992C445.252 145.147 445.625 145.224 446.089 145.224ZM456.756 146C456.271 146.101 455.791 146.141 455.316 146.12C454.847 146.099 454.425 145.997 454.052 145.816C453.684 145.635 453.404 145.352 453.212 144.968C453.057 144.648 452.972 144.325 452.956 144C452.945 143.669 452.94 143.293 452.94 142.872V134.96H454.108V142.824C454.108 143.187 454.111 143.491 454.116 143.736C454.127 143.976 454.183 144.189 454.284 144.376C454.476 144.733 454.78 144.947 455.196 145.016C455.617 145.085 456.137 145.069 456.756 144.968V146ZM451.092 138.368V137.36H456.756V138.368H451.092ZM458.298 135.72V134.4H459.474V135.72H458.298ZM458.298 146V137.36H459.474V146H458.298ZM465.16 146.24C464.302 146.24 463.568 146.045 462.96 145.656C462.352 145.267 461.886 144.728 461.56 144.04C461.235 143.352 461.072 142.563 461.072 141.672C461.072 140.765 461.238 139.971 461.568 139.288C461.899 138.605 462.368 138.075 462.976 137.696C463.59 137.312 464.318 137.12 465.16 137.12C466.024 137.12 466.76 137.315 467.368 137.704C467.982 138.088 468.448 138.624 468.768 139.312C469.094 139.995 469.256 140.781 469.256 141.672C469.256 142.579 469.094 143.376 468.768 144.064C468.443 144.747 467.974 145.28 467.36 145.664C466.747 146.048 466.014 146.24 465.16 146.24ZM465.16 145.112C466.12 145.112 466.835 144.795 467.304 144.16C467.774 143.52 468.008 142.691 468.008 141.672C468.008 140.627 467.771 139.795 467.296 139.176C466.827 138.557 466.115 138.248 465.16 138.248C464.515 138.248 463.982 138.395 463.56 138.688C463.144 138.976 462.832 139.379 462.624 139.896C462.422 140.408 462.32 141 462.32 141.672C462.32 142.712 462.56 143.547 463.04 144.176C463.52 144.8 464.227 145.112 465.16 145.112ZM476.941 146V141.592C476.941 141.112 476.896 140.672 476.805 140.272C476.715 139.867 476.568 139.515 476.365 139.216C476.168 138.912 475.909 138.677 475.589 138.512C475.275 138.347 474.891 138.264 474.437 138.264C474.021 138.264 473.653 138.336 473.333 138.48C473.019 138.624 472.752 138.832 472.533 139.104C472.32 139.371 472.157 139.696 472.045 140.08C471.933 140.464 471.877 140.901 471.877 141.392L471.045 141.208C471.045 140.323 471.2 139.579 471.509 138.976C471.819 138.373 472.245 137.917 472.789 137.608C473.333 137.299 473.957 137.144 474.661 137.144C475.179 137.144 475.629 137.224 476.013 137.384C476.403 137.544 476.731 137.76 476.997 138.032C477.269 138.304 477.488 138.616 477.653 138.968C477.819 139.315 477.939 139.685 478.013 140.08C478.088 140.469 478.125 140.859 478.125 141.248V146H476.941ZM470.693 146V137.36H471.757V139.488H471.877V146H470.693Z" fill="white"/>
<rect x="261.208" y="220.208" width="76.5837" height="37.5837" rx="18.7919" fill="#212121"/>
<rect x="261.208" y="220.208" width="76.5837" height="37.5837" rx="18.7919" stroke="url(#paint7_linear_4671_18177)" stroke-width="0.416295"/>
<path d="M278.12 245V233.48H285.32V234.608H279.296V238.592H284.36V239.72H279.296V243.872H285.32V245H278.12ZM293.165 245V240.592C293.165 240.112 293.12 239.672 293.029 239.272C292.938 238.867 292.792 238.515 292.589 238.216C292.392 237.912 292.133 237.677 291.813 237.512C291.498 237.347 291.114 237.264 290.661 237.264C290.245 237.264 289.877 237.336 289.557 237.48C289.242 237.624 288.976 237.832 288.757 238.104C288.544 238.371 288.381 238.696 288.269 239.08C288.157 239.464 288.101 239.901 288.101 240.392L287.269 240.208C287.269 239.323 287.424 238.579 287.733 237.976C288.042 237.373 288.469 236.917 289.013 236.608C289.557 236.299 290.181 236.144 290.885 236.144C291.402 236.144 291.853 236.224 292.237 236.384C292.626 236.544 292.954 236.76 293.221 237.032C293.493 237.304 293.712 237.616 293.877 237.968C294.042 238.315 294.162 238.685 294.237 239.08C294.312 239.469 294.349 239.859 294.349 240.248V245H293.165ZM286.917 245V236.36H287.981V238.488H288.101V245H286.917ZM296.105 245V236.36H297.161V238.44L296.953 238.168C297.049 237.912 297.174 237.677 297.329 237.464C297.484 237.245 297.652 237.067 297.833 236.928C298.057 236.731 298.318 236.581 298.617 236.48C298.916 236.373 299.217 236.312 299.521 236.296C299.825 236.275 300.102 236.296 300.353 236.36V237.464C300.038 237.384 299.694 237.365 299.321 237.408C298.948 237.451 298.604 237.6 298.289 237.856C298.001 238.08 297.785 238.349 297.641 238.664C297.497 238.973 297.401 239.304 297.353 239.656C297.305 240.003 297.281 240.347 297.281 240.688V245H296.105ZM301.711 234.72V233.4H302.887V234.72H301.711ZM301.711 245V236.36H302.887V245H301.711ZM308.549 245.24C307.68 245.24 306.944 245.045 306.341 244.656C305.738 244.267 305.28 243.731 304.965 243.048C304.656 242.36 304.496 241.571 304.485 240.68C304.496 239.773 304.661 238.979 304.981 238.296C305.301 237.608 305.762 237.075 306.365 236.696C306.968 236.312 307.698 236.12 308.557 236.12C309.432 236.12 310.192 236.333 310.837 236.76C311.488 237.187 311.933 237.771 312.173 238.512L311.021 238.88C310.818 238.363 310.496 237.963 310.053 237.68C309.616 237.392 309.114 237.248 308.549 237.248C307.914 237.248 307.389 237.395 306.973 237.688C306.557 237.976 306.248 238.379 306.045 238.896C305.842 239.413 305.738 240.008 305.733 240.68C305.744 241.715 305.984 242.547 306.453 243.176C306.922 243.8 307.621 244.112 308.549 244.112C309.136 244.112 309.634 243.979 310.045 243.712C310.461 243.44 310.776 243.045 310.989 242.528L312.173 242.88C311.853 243.648 311.384 244.235 310.765 244.64C310.146 245.04 309.408 245.24 308.549 245.24ZM319.744 245V240.592C319.744 240.112 319.699 239.672 319.608 239.272C319.518 238.867 319.371 238.515 319.168 238.216C318.971 237.912 318.712 237.677 318.392 237.512C318.078 237.347 317.694 237.264 317.24 237.264C316.824 237.264 316.456 237.336 316.136 237.48C315.822 237.624 315.555 237.832 315.336 238.104C315.123 238.371 314.96 238.696 314.848 239.08C314.736 239.464 314.68 239.901 314.68 240.392L313.848 240.208C313.848 239.323 314.003 238.579 314.312 237.976C314.622 237.373 315.048 236.917 315.592 236.608C316.136 236.299 316.76 236.144 317.464 236.144C317.982 236.144 318.432 236.224 318.816 236.384C319.206 236.544 319.534 236.76 319.8 237.032C320.072 237.304 320.291 237.616 320.456 237.968C320.622 238.315 320.742 238.685 320.816 239.08C320.891 239.469 320.928 239.859 320.928 240.248V245H319.744ZM313.496 245V233.48H314.56V239.984H314.68V245H313.496Z" fill="white"/>
</g>
<defs>
<linearGradient id="paint0_linear_4671_18177" x1="303.378" y1="70.1895" x2="303.378" y2="210.567" gradientUnits="userSpaceOnUse">
<stop stop-color="#838383"/>
<stop offset="0.424" stop-color="#1C1C1C"/>
<stop offset="1" stop-color="#0D0D0D"/>
</linearGradient>
<linearGradient id="paint1_linear_4671_18177" x1="303.377" y1="35.0937" x2="303.377" y2="245.66" gradientUnits="userSpaceOnUse">
<stop stop-color="#838383"/>
<stop offset="0.424" stop-color="#1C1C1C"/>
<stop offset="1" stop-color="#0D0D0D"/>
</linearGradient>
<linearGradient id="paint2_linear_4671_18177" x1="302.5" y1="0" x2="302.5" y2="279" gradientUnits="userSpaceOnUse">
<stop stop-color="#838383"/>
<stop offset="0.424" stop-color="#1C1C1C"/>
<stop offset="1" stop-color="#0D0D0D"/>
</linearGradient>
<linearGradient id="paint3_linear_4671_18177" x1="162.5" y1="124" x2="162.5" y2="162" gradientUnits="userSpaceOnUse">
<stop stop-color="#838383"/>
<stop offset="0.424" stop-color="#333333"/>
<stop offset="1" stop-color="#212121"/>
</linearGradient>
<linearGradient id="paint4_linear_4671_18177" x1="302.304" y1="110" x2="302.304" y2="176.607" gradientUnits="userSpaceOnUse">
<stop stop-color="#838383"/>
<stop offset="0.424" stop-color="#333333"/>
<stop offset="1" stop-color="#212121"/>
</linearGradient>
<linearGradient id="paint5_linear_4671_18177" x1="302" y1="23" x2="302" y2="61" gradientUnits="userSpaceOnUse">
<stop stop-color="#838383"/>
<stop offset="0.424" stop-color="#333333"/>
<stop offset="1" stop-color="#212121"/>
</linearGradient>
<linearGradient id="paint6_linear_4671_18177" x1="442" y1="121" x2="442" y2="159" gradientUnits="userSpaceOnUse">
<stop stop-color="#838383"/>
<stop offset="0.424" stop-color="#333333"/>
<stop offset="1" stop-color="#212121"/>
</linearGradient>
<linearGradient id="paint7_linear_4671_18177" x1="299.5" y1="220" x2="299.5" y2="258" gradientUnits="userSpaceOnUse">
<stop stop-color="#838383"/>
<stop offset="0.424" stop-color="#333333"/>
<stop offset="1" stop-color="#212121"/>
</linearGradient>
<clipPath id="clip0_4671_18177">
<rect width="604" height="274" fill="white" transform="translate(0 0.25)"/>
</clipPath>
<clipPath id="clip1_4671_18177">
<rect width="33.3036" height="33.3036" fill="white" transform="translate(285.652 126.652)"/>
</clipPath>
</defs>
</svg>
